<?xml version="1.0" encoding="UTF-8"?>
<svg id="_图层_2" data-name="图层 2" xmlns="http://www.w3.org/2000/svg" viewBox="0 0 74.52 74.52">
  <defs>
    <style>
      .cls-1 {
        fill: #fff;
      }
    </style>
  </defs>
  <g id="_图层_2-2" data-name="图层 2">
    <path class="cls-1" d="M36.67,47.33c-6.83,0-10.99-8.06-12.03-10.83-.43-.27-.8-.51-1.05-.96-1.6-2.87-1.99-5.21-1.17-6.94,.31-.65,.76-1.14,1.23-1.5,.02-1.23,.13-3.24,.63-5.22,.21-1.36,1.81-8.58,12.39-8.58s12.19,7.2,12.39,8.58c.5,1.97,.62,3.98,.63,5.21,.48,.35,.93,.84,1.23,1.5,.82,1.74,.42,4.07-1.17,6.94-.25,.46-.63,.69-1.06,.97-1.05,2.77-5.2,10.83-12.03,10.83Zm-10.16-13.85s.02,.01,.03,.02c.57,.36,1.1,.7,1.31,1.43,.53,1.88,4.08,8.85,8.81,8.85s8.29-6.97,8.82-8.84c.2-.73,.77-1.09,1.31-1.43,.01,0,.02-.01,.03-.02,1.21-2.29,.96-3.19,.89-3.35-.06-.15-.17-.2-.23-.22-.87-.16-1.41-.93-1.37-1.82,0-.03,.14-2.84-.53-5.41-.03-.11-.04-.22-.05-.33-.05-.55-.74-5.5-8.88-5.5s-8.86,5.29-8.88,5.51c0,.11-.03,.21-.05,.31-.67,2.59-.53,5.38-.53,5.41,.05,.89-.57,1.68-1.44,1.84,.02,0-.09,.05-.15,.2-.06,.16-.31,1.06,.89,3.35Z"/>
    <path class="cls-1" d="M12.7,64.21c-.98,0-1.77-.79-1.77-1.77,0-8.12,4.53-13.86,13.11-16.62,3.82-1.23,5.88-3.23,5.9-3.25,.7-.69,1.82-.69,2.51,0,.69,.69,.69,1.81,0,2.5-.11,.11-2.64,2.62-7.33,4.13-7.16,2.3-10.65,6.63-10.65,13.24,0,.98-.79,1.77-1.77,1.77Z"/>
    <path class="cls-1" d="M60.62,65.27c-.94,0-1.73-1-1.77-1.95-.44-9.36-5.62-12.4-10.63-14-4.69-1.51-7.22-4.09-7.33-4.19-.69-.7-.68-1.85,.01-2.54,.69-.69,1.81-.7,2.51-.01,.06,.05,2.11,2.03,5.9,3.25,5.36,1.72,12.54,5.62,13.09,17.34,.04,.98-.71,1.11-1.69,2.11h-.08Z"/>
    <path class="cls-1" d="M37.26,74.52C16.71,74.52,0,57.81,0,37.26S16.71,0,37.26,0s37.26,16.71,37.26,37.26-16.71,37.26-37.26,37.26Zm0-70.97C18.67,3.55,3.55,18.67,3.55,37.26s15.12,33.71,33.71,33.71,33.71-15.12,33.71-33.71S55.85,3.55,37.26,3.55Z"/>
  </g>
</svg>