<svg width="53.000000" height="53.000000" viewBox="0 0 53 53" fill="none" xmlns="http://www.w3.org/2000/svg" xmlns:xlink="http://www.w3.org/1999/xlink">
	<desc>
			Created with Pixso.
	</desc>
	<defs>
		<clipPath id="clip519_3089">
			<rect id="clarity:circle-arrow-line" width="53.000000" height="53.000000" transform="translate(0.000000 53.000000) rotate(-90.000000)" fill="white"/>
		</clipPath>
	</defs>
	<g clip-path="url(#clip519_3089)">
		<path id="Vector" d="M2.94446 26.5C2.94446 31.1589 4.32593 35.7131 6.91431 39.5869C9.50256 43.4604 13.1815 46.4797 17.4857 48.2627C21.7899 50.0454 26.5261 50.512 31.0955 49.603C35.6648 48.6941 39.8621 46.4507 43.1562 43.1565C46.4506 39.8621 48.6941 35.6648 49.6029 31.0955C50.5118 26.5261 50.0454 21.79 48.2625 17.4858C46.4796 13.1816 43.4604 9.50269 39.5868 6.91431C35.7131 4.32617 31.1588 2.94458 26.5 2.94458C20.2527 2.94458 14.2612 5.42627 9.84375 9.84375C5.42615 14.2612 2.94446 20.2527 2.94446 26.5ZM47.1111 26.5C47.1111 30.5767 45.9023 34.5615 43.6376 37.9509C41.3728 41.3406 38.1537 43.9822 34.3876 45.5422C30.6213 47.1023 26.4772 47.5105 22.479 46.7151C18.4808 45.9199 14.8082 43.9568 11.9258 41.0745C9.04321 38.1919 7.0802 34.5193 6.28491 30.5212C5.48962 26.5229 5.89783 22.3787 7.45789 18.6125C9.01782 14.8464 11.6597 11.6274 15.0491 9.36255C18.4386 7.0979 22.4235 5.88892 26.5 5.88892C31.9664 5.88892 37.209 8.06055 41.0742 11.9258C44.9396 15.7913 47.1111 21.0337 47.1111 26.5Z" fill-rule="nonzero" fill="#1E1E1E"/>
		<path id="Vector" d="M12.1605 26.3823L23.3641 37.5859C23.4961 37.74 23.6586 37.8652 23.8412 37.9536C24.0238 38.042 24.2228 38.0916 24.4255 38.0996C24.6283 38.1074 24.8304 38.0732 25.0194 37.999C25.2083 37.925 25.3799 37.8127 25.5233 37.6694C25.6669 37.5259 25.7791 37.3542 25.8531 37.1653C25.9271 36.9766 25.9613 36.7744 25.9535 36.5715C25.9457 36.3689 25.896 36.1699 25.8076 35.9873C25.7192 35.8044 25.5941 35.6421 25.4399 35.5103L17.9316 27.9724L40.015 27.9724C40.4054 27.9724 40.7799 27.8174 41.056 27.5413C41.332 27.2651 41.4872 26.8906 41.4872 26.5002C41.4872 26.1096 41.332 25.7351 41.056 25.4592C40.7799 25.1831 40.4054 25.0278 40.015 25.0278L17.6666 25.0278L25.4399 17.2546C25.5941 17.1226 25.7192 16.9602 25.8076 16.7776C25.896 16.595 25.9457 16.396 25.9535 16.1931C25.9613 15.9905 25.9271 15.7883 25.8531 15.5994C25.7791 15.4104 25.6669 15.2388 25.5233 15.0955C25.3799 14.9519 25.2083 14.8396 25.0194 14.7656C24.8304 14.6917 24.6283 14.6575 24.4255 14.6653C24.2228 14.6731 24.0238 14.7227 23.8412 14.811C23.6586 14.8994 23.4961 15.0247 23.3641 15.1787L12.1605 26.3823Z" fill-rule="nonzero" fill="#1E1E1E"/>
	</g>
</svg>
