<svg width="53.000000" height="53.000000" viewBox="0 0 53 53" fill="none" xmlns="http://www.w3.org/2000/svg" xmlns:xlink="http://www.w3.org/1999/xlink">
	<desc>
			Created with Pixso.
	</desc>
	<defs>
		<clipPath id="clip519_3093">
			<rect id="clarity:circle-arrow-line" width="53.000000" height="53.000000" transform="matrix(0 -1 -1 0 53 53)" fill="white"/>
		</clipPath>
	</defs>
	<g clip-path="url(#clip519_3093)">
		<path id="Vector" d="M50.0557 26.5C50.0557 31.1589 48.6741 35.7131 46.0859 39.5869C43.4976 43.4604 39.8186 46.4797 35.5144 48.2627C31.2102 50.0454 26.4739 50.512 21.9045 49.603C17.3352 48.6941 13.1382 46.4507 9.84375 43.1565C6.54956 39.8621 4.30615 35.6648 3.39722 31.0955C2.48828 26.5261 2.95483 21.79 4.73755 17.4858C6.52051 13.1816 9.53955 9.50269 13.4133 6.91431C17.2871 4.32617 21.8413 2.94458 26.5 2.94458C32.7473 2.94458 38.7388 5.42627 43.1565 9.84375C47.574 14.2612 50.0557 20.2527 50.0557 26.5ZM5.88892 26.5C5.88892 30.5767 7.0979 34.5615 9.36255 37.9509C11.6274 41.3406 14.8464 43.9822 18.6125 45.5422C22.3787 47.1023 26.5229 47.5105 30.5212 46.7151C34.5193 45.9199 38.1919 43.9568 41.0745 41.0745C43.9568 38.1919 45.9199 34.5193 46.7151 30.5212C47.5105 26.5229 47.1023 22.3787 45.5422 18.6125C43.9822 14.8464 41.3406 11.6274 37.9509 9.36255C34.5615 7.0979 30.5767 5.88892 26.5 5.88892C21.0337 5.88892 15.7913 8.06055 11.9258 11.9258C8.06055 15.7913 5.88892 21.0337 5.88892 26.5Z" fill-rule="nonzero" fill="#1E1E1E"/>
		<path id="Vector" d="M40.8394 26.3823L29.6357 37.5859C29.5037 37.74 29.3413 37.8652 29.1587 37.9536C28.9761 38.042 28.7771 38.0916 28.5745 38.0996C28.3716 38.1074 28.1694 38.0732 27.9805 37.999C27.7915 37.925 27.6199 37.8127 27.4766 37.6694C27.333 37.5259 27.2207 37.3542 27.1467 37.1653C27.0728 36.9766 27.0386 36.7744 27.0464 36.5715C27.0542 36.3689 27.104 36.1699 27.1921 35.9873C27.2805 35.8044 27.4058 35.6421 27.5598 35.5103L35.0684 27.9724L12.9849 27.9724C12.5945 27.9724 12.22 27.8174 11.9438 27.5413C11.6677 27.2651 11.5127 26.8906 11.5127 26.5002C11.5127 26.1096 11.6677 25.7351 11.9438 25.4592C12.22 25.1831 12.5945 25.0278 12.9849 25.0278L35.3333 25.0278L27.5598 17.2546C27.4058 17.1226 27.2805 16.9602 27.1921 16.7776C27.104 16.595 27.0542 16.396 27.0464 16.1931C27.0386 15.9905 27.0728 15.7883 27.1467 15.5994C27.2207 15.4104 27.333 15.2388 27.4766 15.0955C27.6199 14.9519 27.7915 14.8396 27.9805 14.7656C28.1694 14.6917 28.3716 14.6575 28.5745 14.6653C28.7771 14.6731 28.9761 14.7227 29.1587 14.811C29.3413 14.8994 29.5037 15.0247 29.6357 15.1787L40.8394 26.3823Z" fill-rule="nonzero" fill="#1E1E1E"/>
	</g>
</svg>
