<?xml version="1.0" encoding="UTF-8"?>
<svg id="_图层_2" data-name="图层 2" xmlns="http://www.w3.org/2000/svg" viewBox="0 0 1087.83 221.89">
  <g id="_图层_1-2" data-name="图层 1">
    <g>
      <path d="M949.47,61.01c1-9.03,1.79-16.96,2.83-24.85,.25-1.94,1.3-3.77,1.98-5.66,2.24,1.12,5.72,1.69,6.52,3.45,3.27,7.29,8.75,9.09,16.07,8.47,7.12-.6,14.27-.84,21.42-.98,2.75-.05,5.53,.92,8.28,.86,9.43-.18,18.85-.81,28.28-.87,6.48-.04,12.96,.65,19.45,.91,3.99,.16,7.18-.81,9-5.08,1.51-3.53,5.28-3.87,8.76-1.4,4.52,3.2,9.13,6.3,13.48,9.72,1.24,.97,2.37,2.94,2.31,4.4-.05,1.08-1.93,2.48-3.28,3.06-8.21,3.54-16.45,7.05-24.83,10.2-2.03,.76-4.6,.12-6.92,.13,.48-2.22,.83-4.47,1.48-6.64,.37-1.22,1.43-2.23,1.8-3.45,.38-1.28,.91-3.31,.3-3.91-1.14-1.1-3.06-1.92-4.66-1.92-3.6-.01-7.21,.8-10.82,.83-14.15,.11-28.3,.15-42.45,0-7.78-.08-15.55-.6-23.32-.95-4.92-.22-6.55,2.29-5.34,7.28,.65,2.67,.57,5.6,.35,8.38-.77,9.82,2.01,12.14,12.39,12.87,19.38,1.35,38.93,.57,58.4,.22,3.51-.06,6.95-2.45,10.49-3.55,1.76-.54,4.18-1.4,5.37-.65,1.31,.83,2.19,3.35,2.17,5.12-.12,11.55-.56,23.09-.84,34.63-.09,3.65,.36,7.36-.19,10.93-.25,1.63-2.2,4.17-3.54,4.27-9.23,.7-18.5,1.13-27.76,1.13-9.45,0-18.9-.55-28.34-.94-4.35-.18-7.46,1.23-8.1,5.91-.91,6.62,.39,8.78,6.11,10.13,2.04,.48,4.16,.89,6.25,.9,15.65,.07,31.3,0,46.95,.06,6.05,.02,11.55-1.61,16.79-4.58,1.53-.86,3.72-1.26,5.38-.87,.76,.18,1.36,2.75,1.36,4.24,.08,23.41,.08,46.82,.04,70.24,0,5.75-1.99,7.59-7.67,7.68-20.58,.31-41.16,.77-61.74,.83-2.47,0-7.13-2.22-7.06-3.12,.33-4.08,4.11-3.67,7.22-3.67,12.82,0,25.64-.15,38.45,.08,4.22,.07,5.79-1.98,5.81-5.53,.1-17.93,.03-35.86,.06-53.8,0-4.49-3.12-5.3-6.52-5.49-3.84-.22-7.7-.06-11.56-.06-11.01,0-22.02-.02-33.03,.01-4.83,.01-6.86,2.03-6.87,6.84-.03,18.43,0,36.86-.02,55.29,0,5.89-1.09,9.61-8.37,8.7-2.54-.32-5.21,.3-7.8,.59-4.2,.48-6.76-2.02-6.76-6.78-.01-42.84,0-85.68,0-128.52,0-1.33,.09-2.67-.04-3.98-.21-2.14-.77-3.2-3.49-2.16-11.73,4.49-15.08,3.07-20.6-8.16-.42-.86-1.02-1.64-2.02-3.22-5.26,2.71-10.45,5.61-15.85,8.06-2.03,.92-4.55,.79-6.84,1.14-.12-1.97-.79-4.11-.25-5.89,3.11-10.41,2.98-9.94-8.5-10.81-9.67-.73-15.62,2.35-20.07,11.04-3.82,7.47-9.28,14.15-14.36,20.92-1.57,2.09-4.29,3.32-6.49,4.95-.47-.36-.94-.72-1.4-1.08,.22-1.33,.26-2.72,.7-3.97,3.05-8.69,6.78-17.19,9.14-26.06,3.25-12.21,5.79-24.64,8.04-37.08,1.31-7.22,1.57-14.64,2.08-21.99,.37-5.3,2.46-6.97,7.48-5.27,7.69,2.6,15.36,5.26,23.01,7.98,3.72,1.33,4.56,3.93,2.56,7.33-6.28,10.65-12.58,21.29-18.85,31.94-1.52,2.58-.17,5.37,2.89,5.5,4.49,.19,9,.23,13.47-.07,1.27-.09,2.87-1.32,3.6-2.48,3.29-5.19,6.28-5.71,10.98-1.75,3.25,2.74,6.51,5.51,10.03,7.87,1.64,1.1,3.92,1.26,7.04,2.17Zm40.7,41.27c0,3.81,0,7.63,0,11.44,0,6.24,2.68,7.82,8.96,7.62,9.72-.3,19.49,.07,29.19,.81,6.47,.5,9.79-1.74,9.82-8.22,.03-7.79,.03-15.58,0-23.37-.02-6.51-1.92-8.45-8.63-8.31-5.09,.11-10.17,.88-15.25,.87-5.42,0-10.83-.75-16.25-.86-5.69-.12-7.77,2.03-7.84,7.6-.05,4.14-.01,8.29-.01,12.43Z"/>
      <path d="M787.9,193.84c4.78,0,9.59,.27,14.35-.06,10.27-.7,17.6-6.84,20.64-15.73,3.49-10.18,4.83-21.18,6.34-31.92,1.77-12.62,2.82-25.36,3.99-38.06,.59-6.39,.86-12.81,1.09-19.23,.42-12.05,.69-24.11,1.03-36.17,.1-3.6-1.18-5.94-5.14-6.38-4.39-.49-4.35,3.15-4.74,5.5-2.23,13.49-3.64,27.13-6.24,40.55-4.06,21-11.75,40.84-25.5,57.35-9.94,11.93-21.33,22.84-33.14,32.97-6.89,5.91-15.8,9.53-23.98,13.86-1.53,.81-3.87,.12-7.45,.12,6.36-5.15,11.46-9.68,16.96-13.66,13.27-9.6,23.27-21.9,31.74-35.79,9.98-16.38,15.13-34.48,19.18-52.84,2.52-11.43,2.98-23.31,4.32-34.99,.33-2.89,.98-5.88,.53-8.67-.26-1.6-2.57-4.16-3.7-4.04-1.85,.2-4.43,1.91-5.05,3.59-1.72,4.68-2.87,9.63-3.73,14.56-2.67,15.4-6.79,30.18-13.84,44.35-8.92,17.92-20.86,33.23-35.55,46.57-4.59,4.17-9.61,7.88-14.62,11.54-1.02,.75-2.9,.34-4.38,.46,.29-1.59,.08-3.57,.96-4.71,12.01-15.64,22.56-32.28,29.44-50.69,4.91-13.12,7.58-27.1,10.92-40.77,1.5-6.15,2.33-12.48,3.21-18.76,.7-5.01-.62-6.39-5.65-6.46-4.83-.06-9.66-.13-14.48,.03-3.09,.1-4.38-1.22-3.97-4.15,.61-4.35,1.11-8.75,2.13-13.01,1.73-7.24,1.73-14.36-.12-21.57-.39-1.53-.06-3.25-.06-5.52,2.73,.52,4.81,.76,6.8,1.34,4.68,1.37,9.34,2.79,13.95,4.38,6.44,2.23,8.57,6.06,6.76,12.5-1.7,6.03-3.73,11.96-5.84,18.66,1.7,.39,3.84,1.29,5.98,1.3,19.81,.11,39.62,.19,59.43-.02,5.19-.06,10.5-.65,15.51-1.95,4.79-1.24,9.25-3.73,15.15-6.21,.18,3.14,.39,5.81,.46,8.48,.03,1.14-.26,2.29-.29,3.44-.05,2.16,.01,4.32-.02,6.47-.33,21.35-.06,42.74-1.16,64.05-1.12,21.67-2.2,43.48-7.9,64.59-5.65,20.91-19,34.79-39.94,41.06-4,1.2-5.77-1.94-7.9-4.39-4.26-4.89-8.67-9.64-12.9-14.55-1.47-1.7-2.6-3.7-3.89-5.56,.1-.63,.21-1.26,.31-1.89Z"/>
      <path d="M574.55,114.2c0,5.01,0,9.32,0,13.63-.01,4.04-1.33,6.6-6.11,6.25-3.97-.29-7.99-.09-11.98-.05-3.28,.03-4.89-1.51-4.87-4.8,.03-3.49-.38-7.03,.1-10.45,.63-4.5-2.2-5.98-5.45-6.52-3.23-.53-6.67-.35-9.94,.09-3.12,.42-5.34,1.9-4.81,5.92,.47,3.59,.07,7.29,.1,10.95,.03,3.29-1.58,4.84-4.86,4.81-3.99-.04-7.99,0-11.99,0-6.43,0-8.88-3.16-8.12-9.73,.6-5.24,.98-10.53,.94-15.8-.07-7.76-.84-15.52-.85-23.29-.01-7.23,.67-14.47,.85-21.71,.05-2.08-.82-4.17-.87-6.26-.1-4.38,2.75-6.34,6.39-3.91,10.18,6.8,21.55,4.86,32.6,4.88,4.92,0,6.17-3.03,5.96-10.82-.13-4.82-3.34-5.02-6.81-5.03-15.81-.01-31.63-.05-47.44,.02-3.9,.02-6.7-1.18-7.76-5.98,3.18,0,6.17,0,9.16,0,14.82,0,29.63,.02,44.45,0,7.77-.01,8.37-.66,8.37-8.45,0-6.97-.05-13.95,.02-20.92,.05-5.09,2.19-6.38,6.89-4.54,3.77,1.47,7.65,2.67,11.47,4.03,3.11,1.1,4.74,3.1,4.62,6.63-.19,5.8,.17,11.63-.12,17.43-.21,4.22,1.99,5.83,5.55,5.77,9.59-.16,19.22-.16,28.74-1.12,5.55-.56,10.35-3.76,13.71-8.53,4.03-5.71,6.83-5.61,11.01,.13,2.02,2.78,4.66,5.11,6.69,7.88,1.07,1.47,2.47,4.11,1.88,5.04-.91,1.41-3.42,2.49-5.26,2.51-18.64,.18-37.29,.21-55.93,.04-4.77-.04-6.49,1.72-6.38,6.43,.17,7.21-1.87,10.03,9.75,9.55,8.03-.33,16.05-1.05,24.03-2.02,2.98-.36,5.85-1.84,8.69-3,4.2-1.7,5.92-.77,5.9,3.58-.09,23.66-.24,47.32-.31,70.98-.01,4.31-1.97,6.33-6.29,6.24-3.66-.07-7.32,0-10.99-.02-5.52-.01-7.26-1.56-7.66-7.19-.2-2.81-.33-5.68,.03-8.46,.55-4.25-1.6-5.6-5.28-5.77-3.69-.17-7.39-.6-11.05-.4-2.19,.12-4.33,1.25-6.74,2Zm12.08-25.02c-2.32,0-4.65-.16-6.96,.04-3.3,.29-5.63,1.66-5.15,5.6,.18,1.47,.03,2.97,.03,4.46,0,5.91,1.22,7.35,7.12,7.81,3.13,.24,6.3,.2,9.44,0,4.16-.25,6.75-1.54,6.59-6.81-.34-11.43,.55-11.31-11.07-11.1Zm-.28-7.95c12.89-.3,11.05,2.49,11.21-11.34,0-.17,0-.33,0-.5-.21-3.34-2.09-5.03-5.35-5.1-3.99-.09-7.98-.1-11.96,0-3.5,.09-5.38,2.09-5.67,5.51q-.95,11.43,10.78,11.43c.33,0,.66,0,1,0Zm-44.88,6.93c-3,1.17-7.71,1.61-8.6,3.68-1.45,3.37-.88,7.89-.26,11.78,.66,4.17,4.54,1.99,7.03,2.53,1.11,.24,2.36,.95,3.29,.65,2.9-.93,7.28-1.5,8.24-3.54,3.89-8.28-.29-14.09-9.7-15.11Zm.16-6.93c9.41,0,10.16-.71,9.97-9.4-.14-6.4-1.34-7.55-7.89-7.57-2.15,0-4.34-.25-6.44,.09-1.47,.24-3.84,1.09-4.02,2.01-.75,3.88-1.61,8.03-.94,11.82,.69,3.89,4.8,2.97,7.83,3.05,.5,.01,.99,0,1.49,0Z"/>
      <path d="M130.32,.74c8.22,2.94,15,5.16,21.61,7.81,5.12,2.05,6.18,5.14,3.91,10.16-3.72,8.23-7.56,16.4-11.32,24.61-1,2.19-1.07,5.06,1.8,4.83,11.44-.91,22.93,3.57,34.34-.65,5.52-2.04,10.33-4.65,13.6-9.77,2.24-3.51,5.78-3.68,8.52-.64,3.73,4.15,7.47,8.3,10.89,12.7,.93,1.2,1.16,3.41,.81,4.96-.17,.76-2.4,1.43-3.72,1.47-4.82,.17-9.66,.2-14.48,.04-6.03-.21-6.41,1.16-7.23,8.09-3.1,26.06-7.43,51.81-17.08,76.38-2.07,5.28-4.31,10.53-6.98,15.53-2.34,4.39-2.19,6.8,1.77,9.99,11.85,9.55,24.29,18.17,38.15,24.62,.58,.27,1.09,.69,2.48,1.58-1.4,1.88-2.56,3.77-4.04,5.36-3.81,4.11-7.77,7.96-5.61,14.49,.51,1.54,0,4.65-1.02,5.16-1.5,.77-4.21,.49-5.8-.41-15.11-8.61-30.21-17.25-41.08-31.42-2.37-3.09-5.09-3.16-8.11-.17-14.25,14.09-31.61,23.42-49.66,31.56-2.93,1.32-6.45,1.37-10.51,2.16,1.73-6.65,6.81-8.39,10.57-11.47,9-7.39,18.42-14.4,26.57-22.64,6.17-6.24,10.77-14.07,15.77-21.39,.86-1.26,.71-3.6,.31-5.28-2.83-11.96-6.3-23.79-8.69-35.83-2.5-12.6-4.05-25.39-5.95-38.1-.51-3.39-1.12-6.83-1.01-10.23,.05-1.64,1.4-4.33,2.59-4.59,1.56-.34,4.6,.79,5.16,2.08,1.81,4.22,2.81,8.78,4.06,13.23,4.66,16.66,9.29,33.33,13.96,50,.29,1.04,.8,2.03,1.2,3.04,.56,.13,1.13,.25,1.69,.38,1.05-2.77,2.39-5.46,3.1-8.31,1.81-7.23,3.5-14.49,4.94-21.8,1.86-9.41,3.45-18.87,5.1-28.32,.93-5.28,1.56-10.63,2.66-15.87,1.16-5.48-.36-7.75-6.07-7.79-10.15-.08-20.31,0-30.46-.03-5.51-.01-6.6-2.16-4.36-7.39,2.98-6.93,6.4-13.81,8.16-21.07,1.3-5.35,.3-11.26,.19-16.92-.06-2.94-.41-5.87-.74-10.15Z"/>
      <path d="M651.4,110.35c.45-3.88,.54-6.87,1.18-9.72,4.02-18.05,5.61-36.31,4.9-54.77-.12-3.1-.86-6.17-.91-9.26-.07-4.24,2.37-6.13,6.35-4.95,4.98,1.48,9.9,3.15,14.79,4.89,3.3,1.18,4.7,5.35,3.29,9.73-1.44,4.46-3.13,8.84-4.6,13.3-1.52,4.6,.19,6.57,4.87,5.65,4.22-.83,6.55-2.47,6.39-7.78-.49-16.62-.2-33.27-.17-49.9,0-5.71,2.5-7.24,7.86-5.08,2.1,.85,4.32,1.41,6.5,2.05,4.82,1.41,9.12,4.89,7.94,12.72-.9,5.94,.15,12.16,.2,18.25,.05,6.65-.21,13.31-.03,19.95,.08,2.77,.18,6.05,1.65,8.14,1.98,2.83,5.39,1.53,7.95,.04,2.66-1.55,5.15-3.44,7.49-5.45,3.39-2.9,6.08-2.36,7.68,1.79,.52,1.36,1.09,2.7,1.65,4.05,1.67,4.06-.09,7.05-4.48,7.19-5.16,.16-10.33,.22-15.48-.01-4.75-.22-6.79,2.43-6.88,6.46-.23,10.68-.2,21.37-.02,32.06,.08,4.9,2.14,5.94,7.2,4.81,7.14-1.6,14.33-2.99,21.52-4.33,1.15-.22,2.44,.28,4.63,.58-4.64,5.87-11,7.17-16.22,10.15-4.06,2.32-8.46,4.07-12.75,5.99-4.03,1.79-4.61,5.11-4.43,8.98,.17,3.67-.02,7.36,.07,11.04,.24,10.25,.64,20.5,.76,30.76,.04,3.75-.84,7.51-.78,11.25,.11,7.24,.37,14.5,.98,21.71,.68,8.02-3.14,11.85-10.97,10.68-2.3-.34-4.72,.15-7.03-.15-3.45-.44-5.01-2.68-5-6.12,.02-21.75,.02-43.5-.01-65.25,0-2.56,.69-6.13-.67-7.48-2.88-2.85-5.86,.35-8.63,1.73-5.22,2.6-10.37,5.33-15.62,7.86-3.97,1.92-7.44,1.67-10.12-2.48-3.44-5.33-7.19-10.45-10.7-15.74-2.39-3.6-1.35-5.04,2.81-5.71,12.37-1.97,24.71-4.22,37.03-6.49,4.34-.8,6.12-3.49,6.01-8.09-.26-11.12-.09-22.25-.09-33.37,0-7.74-2.45-10.11-10.2-8.97-2.01,.3-4.65,1.96-5.48,3.71-3.75,7.92-6.72,16.2-10.45,24.13-1.96,4.17-3.63,8.95-9.94,11.45Z"/>
      <path d="M321.06,99.69c3.16-.53,6.15-1.42,9.16-1.46,13.81-.15,27.62-.07,41.44-.07,1.33,0,2.68-.11,3.99,.08,6.07,.89,8.67-2.21,7.52-8.35-.6-3.2-.72-6.67-.18-9.87,1.21-7.24-.61-9.81-7.77-9.8-4.52,0-9.04-.1-13.56,.02-9.61,.26-19.22,.76-28.83,.91-3.59,.06-7.19-.91-10.78-.84-3.94,.08-6.75,1.38-6.38,6.5,.48,6.6,.13,13.27,.11,19.91-.02,7.27-5.67,12.02-12.92,10.87-9.32-1.47-11.03-3.51-11.03-13.12,0-21.41-.03-42.82,.06-64.23,0-1.83,.51-5.02,1.33-5.21,2.19-.5,5.48-.59,6.91,.72,6.17,5.66,13.49,3.16,20.35,3.42,1.07,.04,2.78-2.16,3.26-3.63,1.9-5.85,3.27-11.86,5.12-17.73,2.02-6.41,3.61-7.25,10.16-6.34,5.18,.72,10.4,1.14,15.53,2.11,2.15,.41,5.39,1.53,5.79,2.97,.48,1.72-1.05,4.63-2.59,6.17-4.88,4.89-10.16,9.38-16.15,14.81,2.37,1,3.83,2.14,5.3,2.14,11.95,.03,23.91-.27,35.86-.23,6.34,.02,12.26-1.01,17.99-3.96,7-3.61,9.29-1.79,8.97,6.22-.44,11.16-.93,22.32-.95,33.48-.02,9.75,.68,19.5,.9,29.26,.17,7.73-1.87,9.59-9.87,9.7-8.58,.13-17.16,.86-25.74,.83-11.91-.05-23.82-.64-35.73-.82-3.25-.05-6.5,.62-9.76,.89-3.56,.29-6.4-.62-7.5-5.37Zm27.83-37.4c9.14,0,18.28,.01,27.42,0,5.8-.01,8.05-2.63,7.44-8.27-.46-4.23-1.02-8.49-.91-12.72,.1-3.79-1.59-4.95-4.94-4.95-19.11,.01-38.23-.06-57.34,.15-1.3,.01-3.56,1.94-3.71,3.18-.69,5.51-.7,11.1-1.09,16.65-.33,4.58,1.8,6.11,6.21,6.02,8.97-.2,17.95-.06,26.92-.06Z"/>
      <path d="M298.91,166.91c1.05-.33,2.09-.96,3.11-.93,8.76,.24,17.53,.35,26.26,1,6.38,.48,9.51-1.95,9.51-8.45,0-6.31,.01-12.62,0-18.93,0-4.81-3.38-6.93-8.26-6.62-7.49,.48-15.03,.03-22.54,.16-3.82,.07-7.63,.53-11.44,.84-3.89,.32-7.75,.17-10.49-3-1.13-1.31-1.43-3.33-2.11-5.03,1.7-.39,3.39-.97,5.12-1.13,1.63-.15,3.3,.23,4.95,.23,13.48,.02,26.97-.08,40.45,.06,6.15,.06,12.31,1,18.44,.82,12.02-.35,24.04-.99,36.03-1.97,5.76-.47,9.79-4.15,12.54-9.2,2.61-4.77,4.62-5.11,8.19-1.15,3.73,4.14,7.32,8.41,10.66,12.86,.95,1.27,1.39,3.53,.94,5-.26,.86-2.73,1.45-4.22,1.46-12.32,.11-24.64,.06-36.96,.07-10.97,.01-16.15,3.9-15.39,15.17,.23,3.47,.03,6.97,.04,10.46,0,6.57,1.99,8.94,8.57,8.13,6.66-.82,13.98,.14,19.57-4.91,2.04-1.85,3.81-4.02,5.57-6.15,2.93-3.53,4.99-3.8,8.05-.41,3.4,3.77,6.66,7.68,9.67,11.76,.97,1.31,1.74,3.73,1.15,4.93-.55,1.12-3.03,1.78-4.67,1.8-13.48,.14-26.97,.07-40.45,.08-5.66,0-7.44,1.74-7.46,7.25-.02,8.63-.04,17.27,0,25.9,.03,5.77,2.02,7.98,7.63,7.66,9.34-.53,18.68-1.19,27.96-2.32,5.09-.62,8.63-4.09,11.38-8.39,2.53-3.97,4.98-4.03,8.1-.56,2.97,3.31,6.22,6.41,8.8,10,1.26,1.75,1.27,4.39,1.85,6.63-2.13,.46-4.26,1.27-6.4,1.32-6.22,.16-12.45,0-18.68,.02-1.64,0-3.29,.33-4.93,.31-19.75-.3-39.49-.91-59.24-.9-20.41,0-40.83,.59-61.24,.92-1.33,.02-3.05,.49-3.91-.15-1.64-1.22-2.79-3.09-4.14-4.7,1.47-.7,2.93-1.99,4.4-2,18.48-.14,36.96-.3,55.44,.05,5.16,.1,6.91-2.13,6.98-6.45,.15-9.79,.15-19.59-.01-29.39-.06-3.3-1.57-5.37-5.57-5.25-8.15,.25-16.31,.08-24.47,.07-5.66,0-6.68-.79-8.78-6.96Z"/>
      <path d="M471.64,144.62c0,22.4,0,44.81,0,67.21,0,7.35-1.56,8.88-8.96,8.88-1.5,0-3,0-4.49,0-8.23,0-9.75-1.65-9.52-9.84,.14-5.17,.03-10.35,.03-15.53,0-14.44,0-28.88,0-43.32,0-18.44-.07-36.89,.04-55.33,.04-6.33,.43-12.66,.79-18.99,.24-4.16-1.59-6.37-5.89-6.45-4.99-.09-9.98,.03-14.97-.06-1.43-.03-3.27-.02-4.17-.84-1.54-1.4-2.49-3.45-3.69-5.22,1.79-.62,3.56-1.7,5.37-1.78,5.15-.24,10.31-.07,15.47-.07,6.33,0,8.58-3.4,8.14-9.8-.57-8.31-.06-16.7-.21-25.05-.07-4.08-.79-8.15-.81-12.23-.02-3.77,.58-7.54,.78-11.32,.2-3.74,2.72-3.56,5.31-3.28,.45,.05,.84,.56,1.31,.69,19.27,5.61,15.21,6.65,15.45,20.91,.19,11.61,.22,23.24-.05,34.85-.1,4.28,1.44,5.27,5.47,5.35,5.52,.11,9.99-1.4,13.59-5.56,2.8-3.24,5.75-2.44,7.5,.7,1.79,3.21,6.74,6.31,3.83,10.13-1.62,2.12-6.46,2.17-9.9,2.45-4.63,.38-9.31,.09-13.97,.1q-6.43,0-6.44,6.67c0,22.24,0,44.48,0,66.72Z"/>
      <path d="M262.44,61.29c1.57-4.22,3.14-8.44,4.71-12.66,1.74-4.67,4.58-5.57,8.79-2.7,3.23,2.2,6.44,4.42,9.59,6.72,3.38,2.47,3.28,6.13-.32,8.51-6.38,4.21-12.89,8.24-19.26,12.46-7.21,4.77-8.32,8.57-7.11,16.88,.78,5.4,.11,11.02,.08,16.54-.01,2.65,.09,5.32-.11,7.96-.58,7.51-1.41,14.99-1.87,22.51-.16,2.54,.47,5.12,.77,8.03,7.45-1.82,14.01,.25,20.14,3.17,6.15,2.93,11.68,7.33,13.69,14.07,1.29,4.31,1.58,9.34,.72,13.74-.91,4.67-7.84,8.72-11.69,8.3-4.23-.46-10.09-6.49-10.66-11.42-.92-7.98-3.63-15.07-9.1-21.09-1.16-1.27-1.72-3.08-3.22-5.86-1.78,4.66-3.23,8.66-4.84,12.6-7.72,18.86-16.76,36.97-30.87,52.02-2.12,2.26-5.2,3.63-7.83,5.41-.52-.49-1.04-.98-1.56-1.47,.87-2.32,1.33-4.91,2.68-6.9,7.74-11.38,13.78-23.48,16.77-37,2.2-9.95,4.84-19.81,6.65-29.82,1.3-7.22,1.83-14.62,2.22-21.97,.78-14.75,1.38-29.5-.82-44.24-.97-6.48-.88-13.13-1.09-19.71-.41-12.71-.64-25.43-1.06-38.14-.11-3.26-.86-6.5-.91-9.75-.06-4.16,2.46-6.18,6.42-4.92,4.47,1.42,9.06,2.94,12.98,5.4,1.9,1.19,3.17,4.57,3.34,7.06,.45,6.64,.28,13.33,.12,20-.17,6.93-.76,13.85-.88,20.77-.03,1.92,.98,3.86,1.51,5.8,.67-.1,1.34-.2,2.01-.3Z"/>
      <path d="M71.04,120.55c-4.96-.57-8.94-1.44-12.92-1.41-10.79,.1-21.57,.71-32.35,.84-4.41,.05-8.88-.35-13.22-1.12-1.29-.23-2.23-2.39-3.33-3.67,1.28-.7,2.56-1.98,3.85-2,12.31-.15,24.63-.09,36.94-.09,6.97,0,13.96,.34,20.89-.17,2.82-.21,6-1.68,8.16-3.56,5.59-4.87,6.72-5.09,12.92-.87,2.95,2.01,6.2,3.6,9.34,5.33,5.95,3.27,6,5.85,.59,9.87-8.18,6.08-16.17,12.4-24.54,18.85,3.17,3.69,6.1,1.14,8.72,.82,4.33-.53,8.59-1.7,12.92-2.28,1.44-.19,3.01,.58,4.52,.92,.14,.47,.28,.94,.41,1.41-5.71,2.83-11.36,5.79-17.16,8.45-3.53,1.62-7.48,2.4-10.87,4.25-3.46,1.89-4.06,5.46-3.96,9.32,.21,8.21,.08,16.43,.09,24.65,0,4.17,.06,8.35,.03,12.52-.06,7.46-4.97,11.4-10.88,14.41-2.88,1.47-5.93,2.74-9.05,3.54-3.91,1-6.91-.88-9.58-3.77-3.93-4.25-8.2-8.19-12.2-12.37-1.65-1.73-3-3.76-5.46-6.89,3.98-.3,6.8-.95,9.5-.63,10.42,1.22,14.22-4.62,13.66-13.72-.19-3.14,.06-6.31-.06-9.46-.15-4.28-2.21-5.5-6.04-3.83-7.76,3.38-15.55,6.71-23.31,10.07-5.84,2.53-9.49,.35-11.62-6.31-1.67-5.21-3.77-10.33-6.1-15.29-1.94-4.13-.97-6.42,3.57-6.33,3.43,.06,6.88,1.02,10.28,.87,10.36-.46,20.71-1.24,31.06-1.93,4.27-.29,3.66-3.37,2.71-5.77-1.17-2.94-.1-4.24,2.41-5.16,9.04-3.3,14.19-10.6,20.07-19.48Z"/>
      <path d="M917.53,178.81c4.72-2.61,9.48-5.13,14.13-7.86,5.34-3.13,10.54-6.48,15.86-9.65,1.2-.71,2.61-1.06,3.93-1.57,.47,.4,.94,.8,1.42,1.2-2.46,3.73-4.77,7.58-7.42,11.17-10.45,14.16-21.01,28.23-31.51,42.36-4.11,5.53-6.73,5.49-10.82-.15-1.63-2.25-3.45-4.37-5.28-6.47-3.65-4.18-5.71-8.65-5.66-14.56,.26-33.03,.12-66.05,.13-99.08,0-7.92,2.03-9.44,9.54-6.95,3.54,1.18,7.27,2.21,10.36,4.17,1.9,1.21,3.86,4.05,3.88,6.18,.23,25.22,.09,50.45,.05,75.67,0,1.4,0,2.79,0,4.19,.47,.45,.94,.9,1.41,1.35Z"/>
      <path d="M559.72,196.82c3.82,0,6.52-.16,9.19,.03,8.76,.63,12.78-4.15,12.68-12.82-.09-8.13,.03-16.27-.04-24.41-.05-6.39-2.94-8.59-9.05-7.14-1.43,.34-2.94,.44-4.41,.45-11.35,.04-22.7,.02-34.05,.02-12.57,0-25.15,.05-37.72-.05-2.25-.02-4.57-.44-6.71-1.12-1.01-.32-2.55-2.17-2.37-2.5,.71-1.27,1.86-2.71,3.15-3.13,1.66-.53,3.62-.2,5.45-.14,8.44,.31,16.89,.92,25.33,.91,9.28-.01,18.56-.83,27.84-.85,8.12-.02,16.24,.65,24.37,.9,6.09,.19,8.07-1.74,8.19-7.65,.14-7.11,1.44-8.11,8.09-5.65,5.05,1.87,11.39,1.84,14.25,7.37,2.55,4.94,5.47,6.82,11.16,5.11,4.72-1.42,8.85-2.8,11.38-7.51,1.02-1.91,3.43-4.26,5.19-4.24,1.64,.01,3.38,2.79,4.86,4.53,1.57,1.86,3.11,3.81,4.24,5.95,1.02,1.92,1.48,4.13,2.5,7.14-3.9,0-6.84,0-9.79,0-2.83,0-5.66-.02-8.49-.02-4.19,0-8.41,.31-12.56-.06-4.64-.42-7.09,1.94-7.07,6.68,.03,6.09-.7,12.19-.69,18.28,0,6.26-.14,12.64,.93,18.77,2.44,13.98-13.96,29.11-27.48,24.82-1.34-.43-2.8-1.33-3.61-2.44-4.64-6.44-9.1-13.02-14.77-21.21Z"/>
      <path d="M19.5,78.1c-.44-7.22-.86-14.44-1.33-21.66-.19-2.91,3.25-4.93,6.32-3.23,13.58,7.51,28.25,3.18,42.4,3.76,3.32,.14,7.05-3.06,10.14-5.33,3.47-2.56,6.74-3.05,10.49-1.09,1.74,.91,3.43,1.97,5.25,2.67,7.9,3.06,9.1,5.96,8.39,14.4-.7,8.41-.42,16.93-.12,25.38,.24,6.59-.63,8.06-8.24,8.17-13.42,.18-26.84,.62-40.25,.95-1,.02-2,0-3,0-3.05,.02-5.48-1.54-5.2-4.42,.13-1.32,3.18-3.24,5-3.36,6.46-.41,12.97-.16,19.46-.17,7.2,0,8.19-1.02,8.2-8.29,0-5.81-.05-11.62,.02-17.43,.03-2.46-.37-4.24-3.43-4.23-7.02,0-14.05-.12-21.07-.18-1.64-.01-3.34,.28-4.92-.04-5.57-1.12-8.29,.38-8.46,6.02-.2,6.39,.63,12.81,.76,19.22,.17,8.64-1.19,15.63-12.35,14.92-5.55-.36-8.43-3.01-8.48-8.6-.06-5.81-.01-11.62-.01-17.43,.14,0,.28-.02,.42-.02Z"/>
      <path d="M118.13,42.08c-1.91,.45-3.61,1.2-5.3,1.2-35.13,.07-70.25,.07-105.38,.02-3.47,0-6.78-.56-6.18-5.92,8.48,0,16.93,0,25.37,0,8.32,0,16.65,.13,24.97-.03,10.27-.2,20.53-.65,30.79-.95,5.9-.17,9.57-3.72,12.65-8.19,1.02-1.48,1.74-3.59,3.15-4.25,1.76-.83,5.09-1.4,5.99-.44,4.8,5.14,9.06,10.77,13.47,16.27,.27,.34,.21,.94,.47,2.31Z"/>
      <path d="M223.79,65.1c1.71,2.06,4.08,3.85,5.01,6.21,4.9,12.45,6.56,25.54,5.94,38.82-.26,5.56-2.29,10.79-6.96,14.54-3.13,2.51-6.1,2.46-9-.25-3.22-3-4.84-6.4-5.05-11.12-.44-9.59,2.32-18.25,5.48-27.03,1.51-4.2,1.94-8.82,2.64-13.28,.37-2.34,.26-4.75,.37-7.13,.52-.26,1.05-.52,1.57-.78Z"/>
      <path d="M1011.07,36.36c-7.27-.03-13.97-7.08-16-15.55-1.16-4.84-3.85-9.29-5.64-14-.6-1.56-1.18-3.62-.61-4.97,.37-.89,2.99-1.57,4.29-1.21,6.39,1.74,12.83,3.5,18.96,5.95,6.78,2.7,9.9,8.81,11.8,15.39,1.74,6.02-5.94,14.42-12.8,14.39Z"/>
      <path d="M550.56,183.6c.06,7.91-3.56,14.18-10.11,15.44-3.39,.65-8.59-.84-10.84-3.3-3.06-3.35-5.36-8.47-5.66-12.98-.39-5.81-1.19-10.86-5.14-15.28-.98-1.1-1.28-2.82-1.89-4.25,1.67-.43,3.41-1.4,5-1.2,10.64,1.38,25.04,7.71,28.09,18.76,.34,1.24,.5,2.54,.55,2.81Z"/>
      <path d="M39,1.6c5.74-3.09,10.94-1.13,15.84,1.02,6.99,3.07,14.19,6.1,16.55,14.62,1.66,6.01-.6,12.51-5.65,15.21-5.63,3.01-12.96,1.7-16.47-3.56-1.42-2.13-2.7-5.55-1.98-7.69,2.55-7.61-.85-12.55-6.1-17.11-.72-.63-1.28-1.45-2.18-2.49Z"/>
      <path d="M615.52,17.19c-.06,5.08-4.31,10.65-7.82,11.18-4.59,.7-8.34-2.46-10.87-8.07-1.89-4.2-4.61-8.01-6.94-12.02-.58-1-1.72-2.37-1.41-3.02,.53-1.13,1.85-2.3,3.07-2.62,6.6-1.73,20.69,5.4,23.3,11.69,.49,1.17,.59,2.5,.67,2.86Z"/>
    </g>
  </g>
</svg>