<svg width="24.000000" height="24.000000" viewBox="0 0 24 24" fill="none" xmlns="http://www.w3.org/2000/svg" xmlns:xlink="http://www.w3.org/1999/xlink">
	<desc>
			Created with Pixso.
	</desc>
	<defs>
		<clipPath id="clip1_7930">
			<rect width="24.000000" height="24.000000" fill="white"/>
		</clipPath>
	</defs>
	<g clip-path="url(#clip1_7930)">
		<path d="M8.46448 8.46448C10.4171 6.51187 13.5829 6.51187 15.5356 8.46448C17.4882 10.4171 17.4882 13.5829 15.5356 15.5356L14.9884 16.0826C14.3556 16.7155 14 17.5739 14 18.469L14 19C14 20.1046 13.1046 21 12 21C10.8954 21 10 20.1046 10 19L10 18.469C10 17.5739 9.64447 16.7155 9.01157 16.0826L8.46448 15.5356C6.51184 13.5829 6.51184 10.4171 8.46448 8.46448ZM9.66354 17L14.3365 17M12 3L12 4M18.364 5.63605L17.6569 6.34314M21.0001 11.9999L20.0001 11.9999M4.00006 11.9999L3.00006 11.9999M6.34314 6.34314L5.63605 5.63605" stroke="#FFFFFF" stroke-width="2.000000" stroke-linejoin="round"/>
	</g>
</svg>
