<?xml version="1.0" encoding="UTF-8"?>
<svg id="_图层_2" data-name="图层 2" xmlns="http://www.w3.org/2000/svg" viewBox="0 0 494.78 125.92">
  <defs>
    <style>
      .cls-1, .cls-2 {
        fill: #dbca31;
      }

      .cls-2 {
        font-family: FZFW-ZhuZiGuDianS-LMC--GB1-0, 'FZFW ZhuZi GuDianS LMC';
        font-size: 91.1px;
      }
    </style>
  </defs>
  <g id="_图层_1-2" data-name="图层 1">
    <g>
      <g id="_图层_2-2" data-name=" 图层 2">
        <g id="_图层_1-2" data-name=" 图层 1-2">
          <g>
            <path class="cls-1" d="M117.1,58.49c-.05,1.77-.05,3.49-.16,5.21-.08,1.17-.3,2.33-.46,3.49-.06,.46-.12,.92-.21,1.37-.38,1.79-.75,3.59-1.17,5.38-.27,1.16-.58,2.31-.97,3.43-.72,2.11-1.53,4.19-2.54,6.19-.44,.87-.84,1.76-1.31,2.62-.78,1.42-1.59,2.82-2.41,4.22-.98,1.67-2.19,3.18-3.34,4.74-1.18,1.62-2.52,3.11-3.83,4.62-.71,.82-1.51,1.58-2.31,2.32-1.23,1.13-2.45,2.28-3.75,3.32-1.36,1.08-2.8,2.05-4.24,3.02-1.22,.82-2.48,1.59-3.75,2.32-1.09,.62-2.22,1.17-3.36,1.71-1.25,.59-2.52,1.17-3.8,1.7-.98,.4-1.98,.74-2.99,1.05-1.36,.42-2.72,.84-4.1,1.16-1.48,.34-2.95,.73-4.47,.92-.56,.07-1.1,.23-1.65,.33-.28,.05-.55,.1-.83,.12-2.76,.2-5.51,.44-8.28,.37-.79-.02-1.59,.01-2.38-.01-.51-.02-1.02-.08-1.53-.13-1.3-.14-2.61-.21-3.89-.44-1.58-.28-3.13-.67-4.69-1.05-1.19-.29-2.38-.57-3.54-.95-1.56-.5-3.1-1.06-4.62-1.66-1.23-.48-2.44-1.01-3.63-1.58-1.85-.88-3.62-1.92-5.33-3.06-.93-.62-1.83-1.31-2.74-1.96-.21-.15-.44-.29-.65-.46-.95-.77-1.88-1.56-2.85-2.31-2.07-1.61-3.87-3.51-5.7-5.38-.97-.99-1.81-2.11-2.75-3.12-.93-1-1.64-2.15-2.45-3.24-1.19-1.61-2.23-3.32-3.22-5.05-1.03-1.81-2.01-3.65-2.8-5.58-.44-1.07-.95-2.12-1.3-3.21-.43-1.34-.98-2.63-1.25-4.02-.21-1.07-.5-2.12-.73-3.19-.14-.65-.23-1.3-.34-1.95-.07-.39-.18-.77-.23-1.16C.02,64.35-.1,60.09,.08,55.82c.06-1.36,.16-2.71,.25-4.06,0-.1,.02-.2,.03-.3,.21-1.27,.41-2.55,.64-3.81,.13-.71,.34-1.41,.52-2.12,.27-1.08,.51-2.15,.82-3.22,.27-.94,.6-1.85,.9-2.78,.08-.25,.15-.51,.24-.76,.36-.97,.72-1.95,1.1-2.92,.49-1.23,.99-2.46,1.54-3.65,.46-.99,1.01-1.94,1.52-2.9,.26-.48,.53-.95,.79-1.43,.79-1.44,1.79-2.74,2.67-4.12,.84-1.32,1.96-2.41,2.88-3.66,.89-1.21,1.95-2.24,3-3.3,1.06-1.07,2.12-2.14,3.29-3.09,.74-.6,1.49-1.21,2.23-1.81,1.62-1.32,3.41-2.39,5.15-3.53,1.56-1.02,3.21-1.85,4.87-2.66,1.26-.61,2.53-1.24,3.83-1.75,1.63-.63,3.3-1.18,4.97-1.7,1.29-.4,2.61-.74,3.94-1.02,1.55-.32,3.12-.56,4.69-.8,.95-.15,1.9-.26,2.86-.35,.51-.05,1.02-.06,1.54-.06,1.23,0,2.45-.03,3.68,0,1.74,.05,3.47,.15,5.21,.24,.26,.01,.52,.07,.78,.12,.28,.05,.43,.23,.44,.52,0,.17,0,.33,0,.5-.01,1.51-.02,3.01-.04,4.52,0,.23,0,.46-.03,.69-.04,.43-.15,.53-.6,.56-.07,0-.13,0-.2,0-2.53-.05-5.07,.04-7.59,.2-1.35,.08-2.7,.24-4.05,.37-.89,.09-1.77,.2-2.66,.32-.43,.06-.85,.13-1.27,.22-.91,.19-1.82,.37-2.71,.6-1.68,.44-3.37,.85-4.99,1.47-1.13,.43-2.28,.81-3.38,1.3-1.25,.55-2.49,1.16-3.69,1.82-1.26,.69-2.48,1.46-3.71,2.2-2.06,1.23-3.8,2.87-5.62,4.4-2.06,1.74-3.81,3.76-5.44,5.9-.78,1.02-1.57,2.04-2.35,3.07-.18,.24-.32,.5-.48,.75-.89,1.47-1.79,2.94-2.65,4.43-.44,.76-.82,1.55-1.19,2.34-.51,1.09-1.03,2.19-1.45,3.32-.56,1.5-1.05,3.03-1.54,4.56-.35,1.1-.66,2.22-.95,3.34-.15,.59-.23,1.2-.35,1.8-.28,1.39-.59,2.78-.85,4.18-.14,.79-.27,1.61-.28,2.41-.04,2.46-.02,4.93-.02,7.4,0,1.71,.3,3.39,.51,5.08,.19,1.5,.55,2.96,.89,4.42,.3,1.3,.61,2.6,1.17,3.84,.5,1.11,.91,2.27,1.42,3.38,.35,.78,.79,1.52,1.2,2.28,.3,.55,.59,1.11,.92,1.64,.55,.9,1.12,1.79,1.69,2.69,.24,.38,.48,.75,.75,1.11,1.06,1.41,2.13,2.82,3.21,4.22,.33,.43,.72,.82,1.09,1.22,1.54,1.68,3.13,3.33,4.83,4.85,1.32,1.18,2.73,2.25,4.2,3.24,.78,.53,1.56,1.06,2.36,1.56,.62,.38,1.27,.71,1.92,1.04,1.13,.59,2.25,1.2,3.4,1.73,1.31,.59,2.67,1.08,3.98,1.66,.93,.41,1.91,.63,2.87,.93,.74,.23,1.51,.38,2.26,.58,1.92,.51,3.88,.82,5.84,1.16,3.22,.56,6.46,.58,9.7,.46,2.86-.11,5.71-.44,8.51-1.09,1.43-.33,2.87-.63,4.3-1.01,1.04-.27,2.05-.64,3.07-.98,.89-.3,1.8-.58,2.66-.96,1.16-.51,2.32-1.04,3.45-1.63,1.38-.72,2.68-1.58,3.97-2.43,1.1-.73,2.25-1.38,3.26-2.26,.57-.5,1.23-.9,1.81-1.38,.65-.54,1.26-1.11,1.87-1.7,1.15-1.1,2.3-2.19,3.41-3.33,.69-.71,1.33-1.48,1.94-2.25s1.19-1.59,1.77-2.38c.51-.69,1.04-1.37,1.51-2.09,.46-.7,.85-1.45,1.28-2.18,.2-.34,.43-.67,.62-1.02,.42-.75,.83-1.5,1.22-2.27,.42-.82,.84-1.65,1.22-2.49,.38-.83,.74-1.66,1.07-2.51,.37-.95,.73-1.92,1.02-2.89,.43-1.41,.87-2.81,1.06-4.27,.11-.9,.36-1.78,.48-2.68,.42-3.17,.79-6.34,.56-9.55-.13-1.83-.3-3.66-.6-5.47-.08-.49-.19-.97-.26-1.46-.15-1.01-.28-2.03-.44-3.04-.05-.31-.15-.61-.23-.92-.21-.88-.38-1.78-.64-2.65-.44-1.46-.91-2.91-1.58-4.28-.88-1.8-1.75-3.6-2.69-5.37-.65-1.24-1.49-2.38-2.24-3.57-.93-1.47-2.04-2.81-3.08-4.19-1.12-1.47-2.37-2.85-3.71-4.13-1.4-1.34-2.77-2.71-4.24-3.96-1.42-1.21-2.91-2.35-4.52-3.32-1.42-.84-2.83-1.71-4.3-2.46-1.85-.95-3.74-1.82-5.73-2.48-1.11-.37-2.21-.78-3.33-1.15-.38-.13-.77-.2-1.15-.29-.59-.14-1.19-.28-1.79-.42-.56-.13-.71-.25-.74-.83-.04-.89,0-1.79-.04-2.68-.05-1.04-.15-2.08-.25-3.12-.05-.56,.05-.7,.61-.59,1.15,.22,2.32,.41,3.45,.71,1.36,.36,2.69,.82,4.03,1.22,1.56,.47,3.05,1.1,4.55,1.71,1.56,.64,3.06,1.41,4.53,2.24,.89,.5,1.79,1.01,2.66,1.54,.78,.47,1.54,.97,2.29,1.48,1.3,.91,2.61,1.8,3.86,2.78,1.15,.9,2.22,1.88,3.31,2.84,.52,.46,1.03,.93,1.52,1.43,.66,.67,1.29,1.37,1.92,2.07,.62,.69,1.25,1.37,1.83,2.09,.69,.85,1.35,1.71,1.99,2.6,.77,1.07,1.54,2.15,2.24,3.27,.75,1.19,1.44,2.41,2.12,3.64,.63,1.13,1.23,2.27,1.82,3.41,.31,.6,.58,1.23,.83,1.86,.49,1.21,.99,2.42,1.41,3.66,.43,1.27,.79,2.56,1.12,3.85,.37,1.44,.68,2.9,.98,4.35,.13,.65,.18,1.31,.27,1.97,.16,1.13,.39,2.25,.46,3.39,.11,1.83,.12,3.67,.17,5.46h0Z"/>
            <path class="cls-1" d="M68.25,65.51c0,.13-.02-.37,0-.15,.36,.11,.63,.31,.9,.48,.72,.46,1.34,1.02,1.85,1.7,.17,.23,.23,.46,.2,.74-.03,.31-.07,.62-.07,.94,0,1.27,.02,2.55,.03,3.82,0,.57,.13,.74,.7,.82,.52,.07,1.05,.11,1.58,.12,2.22,.03,4.44,.05,6.65,.06,3.92,.03,7.85,.06,11.77,.08,1.39,0,2.78,.02,4.17,0,.39,0,.79-.06,1.18-.12,.38-.06,.53-.24,.6-.62,0-.02,0-.03,0-.05,0-1.54,.13-3.08-.17-4.6-.02-.11-.06-.23-.11-.33-.09-.2-.23-.29-.43-.15-.57,.4-1.25,.41-1.9,.49-.62,.08-1.25,.06-1.88,.07-1.51,.02-3.01,.02-4.52,.03-4.1,.03-8.21,.08-12.31,.07-1.22,0-2.44-.18-3.65-.31-.26-.03-.52-.13-.74-.28-.4-.26-.69-.61-.67-1.14,.02-.56,0-1.13,.04-1.69,.04-.49,.2-.6,.67-.6,2.93,.03,5.86,.05,8.79,.09,3.29,.04,6.59,.09,9.88,.11,1.84,.01,3.67,0,5.51-.02,.33,0,.66-.04,.99-.07,.38-.04,.55-.18,.56-.56,.02-.58,0-1.16,0-1.74,0-.31-.17-.5-.48-.54-.47-.06-.95-.12-1.43-.16-.86-.08-1.72-.09-2.57-.23-.65-.1-1.27-.36-1.9-.55-1.11-.34-2.06-.97-2.97-1.67-.76-.59-1.49-1.21-2.22-1.83-.2-.17-.39-.36-.41-.69,.41-.22,.81-.5,1.25-.66,.54-.19,.78-.55,.78-1.08,0-1.08,0-2.15-.06-3.22-.07-1.17-.18-2.34-.05-3.52,.01-.12,.05-.24,.09-.46,.28,.47,.48,.87,.74,1.23,.41,.56,.85,1.1,1.3,1.62,1.18,1.35,2.61,2.38,4.1,3.34,1.45,.92,2.94,1.79,4.5,2.52,1.51,.72,3.08,1.29,4.69,1.76,1.1,.32,2.2,.6,3.3,.89,.9,.24,.94,.32,.81,1.23-.19,1.33-.33,2.66-.54,3.98-.13,.88-.3,1.76-.5,2.63-.27,1.19-.54,2.39-.9,3.55-.39,1.24-.87,2.46-1.34,3.68-.91,2.38-2.07,4.65-3.3,6.88-.91,1.65-2.05,3.16-3.18,4.67-1.37,1.81-2.93,3.45-4.45,5.13-1.4,1.55-2.95,2.95-4.54,4.29-1.54,1.3-3.11,2.58-4.69,3.82-.63,.5-1.36,.89-2.03,1.33-.67,.43-1.33,.87-1.99,1.3-.43,.27-.91,.45-1.31,.8-.33,.29-.56,.16-.64-.28-.04-.23-.05-.46-.05-.69-.05-2.94-.1-5.89-.15-8.83,0-.66,.02-1.32,.02-1.99,0-.31,0-.63-.02-.94-.04-.47-.29-.8-.72-.98-.24-.1-.49-.19-.74-.28-2.23-.78-4.31-1.86-6.28-3.15-.89-.57-1.77-1.15-2.66-1.73-.98-.64-1.64-1.58-2.32-2.49-.31-.42-.61-.86-.9-1.31-.32-.52-.78-.71-1.38-.71-2.02,0-4.04,0-6.06,0-.35,0-.69,.03-1.04,.03-.56,0-.92,.32-1.18,.77-.11,.18-.19,.38-.27,.58-.45,1.13-1.31,1.94-2.14,2.77-.8,.8-1.71,1.46-2.65,2.08-.43,.28-.82,.61-1.26,.88-1.74,1.08-3.58,1.93-5.51,2.59-.16,.05-.3,.13-.46,.18-.64,.22-.86,.71-.87,1.35-.03,2.46-.05,4.93-.1,7.4-.04,1.8-.12,3.61-.18,5.41,0,.1-.03,.19-.05,.3-.36,.07-.67-.04-.96-.19-1.66-.85-3.34-1.67-4.97-2.58-1.15-.64-2.24-1.4-3.34-2.14-.91-.6-1.8-1.23-2.68-1.87-.57-.42-1.13-.87-1.66-1.34-.97-.85-1.95-1.69-2.85-2.61-1.35-1.38-2.65-2.82-3.94-4.26-.42-.46-.74-1.01-1.12-1.51-.43-.55-.9-1.06-1.31-1.62-.56-.78-1.11-1.57-1.6-2.38-.69-1.13-1.33-2.28-1.97-3.44-.18-.33-.32-.69-.47-1.03-.28-.63-.6-1.25-.84-1.9-.41-1.1-.86-2.18-1.08-3.35-.04-.24-.17-.47-.23-.71-.14-.51-.3-1.02-.41-1.53-.13-.6-.31-1.18-.56-1.74-.08-.19-.2-.43-.01-.61,.18-.17,.38,.03,.54,.1,.39,.18,.76,.4,1.14,.6,1.32,.7,2.69,1.23,4.15,1.6,2.74,.69,5.54,.97,8.35,1.06,2.84,.09,5.69,.1,8.54,.11,6.41,.04,12.81,.06,19.22,.08,.39,0,.79-.07,1.17-.15,.33-.07,.51-.33,.46-.67-.07-.52-.17-1.04-.25-1.56-.07-.41-.14-.81-.19-1.22-.03-.33,.03-.42,.37-.47,.43-.06,.86-.09,1.29-.1,2.32-.05,4.63-.07,6.95-.14,1.32-.04,2.65,0,3.96-.25,.61-.11,.75-.24,.77-.87,.02-.48-.03-.96,.18-1.42,.14-.31,.18-.33,.58-.22v.15Z"/>
            <path class="cls-1" d="M10.41,62.19c-.65,.03-.78-.1-.82-.67-.07-.84-.15-1.68-.25-2.52-.13-1.17-.27-2.33-.41-3.5-.1-.85-.19-1.12,1.02-1.32,1.65-.27,3.3-.54,4.93-.89,1.02-.22,2-.56,3-.87,1.06-.33,2.13-.63,3.16-1.03,1.93-.74,3.85-1.5,5.75-2.33,1.44-.63,2.83-1.37,4.22-2.09,.92-.48,1.81-1.02,2.71-1.55,1.59-.93,3.11-1.95,4.61-3,2.87-2.01,5.47-4.33,7.96-6.78,1.63-1.6,3.15-3.31,4.57-5.09,.65-.81,1.31-1.63,1.89-2.48,.72-1.05,1.36-2.15,2.06-3.22,.64-.97,1.21-1.97,1.68-3.03,.36-.8,.69-1.61,1.02-2.42,.31-.75,.61-1.5,.9-2.26,.17-.45,.27-.92,.42-1.37,.11-.34,.23-.69,.39-1.01,.21-.41,.56-.64,1.04-.64,1.23,0,2.45,0,3.68,0,.41,0,.52,.12,.53,.54,0,.2-.02,.4-.06,.59-.28,1.44-.53,2.9-.87,4.33-.33,1.38-.8,2.73-1.37,4.04-.42,.97-.78,1.97-1.26,2.91-.69,1.36-1.45,2.67-2.19,4-.75,1.34-1.69,2.57-2.54,3.85-.85,1.27-1.87,2.4-2.81,3.6-1.11,1.43-2.38,2.7-3.69,3.94-.78,.74-1.51,1.54-2.33,2.23-1.39,1.17-2.81,2.32-4.27,3.39-1.51,1.1-3.09,2.09-4.63,3.15-1.38,.95-2.79,1.83-4.26,2.63-1.44,.78-2.86,1.59-4.31,2.34-2.01,1.05-4.13,1.85-6.27,2.61-1.29,.46-2.57,.97-3.87,1.39-1.21,.39-2.45,.7-3.67,1.05-.54,.15-1.08,.33-1.62,.47-1.21,.33-2.43,.64-3.64,.95-.16,.04-.33,.04-.41,.05h0Z"/>
            <path class="cls-1" d="M105.36,50.96c-.46,.2-.87,.08-1.24-.07-1.29-.51-2.58-1.02-3.84-1.6-1.68-.78-3.33-1.62-4.98-2.46-1.32-.68-2.66-1.35-3.88-2.2-.77-.54-1.53-1.1-2.27-1.68-.72-.56-1.43-1.13-2.13-1.71-.7-.59-1.38-1.18-2.05-1.8-1.05-.98-2.1-1.97-3.12-2.98-.59-.58-1.12-1.22-1.68-1.82-.26-.28-.52-.55-.79-.83-.65-.67-1.18-1.42-1.68-2.2-.39-.61-.85-1.18-1.23-1.8-.54-.91-1.17-1.76-1.63-2.72-.43-.89-1.01-1.71-1.45-2.59-.77-1.54-1.44-3.12-1.99-4.75-.5-1.49-1.01-2.97-1.51-4.46-.26-.78-.3-1.59-.35-2.4,0-.1,.07-.2,.11-.3,.1,.06,.24,.09,.31,.18,.48,.59,.94,1.19,1.4,1.79,.09,.12,.18,.23,.26,.36,.74,1.16,1.44,2.34,2.21,3.47,1.01,1.47,2.03,2.94,3.25,4.25,.92,1,1.78,2.05,2.7,3.04,.9,.97,1.81,1.94,2.78,2.84,1.44,1.34,2.89,2.67,4.4,3.93,1.28,1.07,2.63,2.05,3.96,3.07,1.35,1.02,2.81,1.87,4.28,2.69,1.32,.73,2.65,1.42,3.97,2.15,1.04,.58,2.07,1.18,3.09,1.79,.31,.18,.6,.42,.87,.66,.15,.14,.29,.33,.37,.52,.35,.79,.59,1.61,.7,2.47,.09,.65,.29,1.29,.42,1.94,.12,.58,.22,1.17,.34,1.75,.1,.48,.23,.96,.36,1.5h0Z"/>
          </g>
        </g>
      </g>
      <text class="cls-2" transform="translate(130.37 91.75)"><tspan x="0" y="0">楽舞敦煌</tspan></text>
    </g>
  </g>
</svg>