<?xml version="1.0" encoding="UTF-8"?>
<svg id="_图层_2" data-name="图层 2" xmlns="http://www.w3.org/2000/svg" viewBox="0 0 2172.41 522.11">
  <defs>
    <style>
      .cls-1, .cls-2 {
        fill: #9a6c31;
      }

      .cls-2 {
        font-family: FZFW-ZhuZiGuDianS-LMC--GB1-0, 'FZFW ZhuZi GuDianS LMC';
        font-size: 400px;
      }
    </style>
  </defs>
  <g id="_图层_1-2" data-name="图层 1">
    <g>
      <g id="_图层_2-2" data-name=" 图层 2">
        <g id="_图层_1-2" data-name=" 图层 1-2">
          <g>
            <path class="cls-1" d="M514.16,256.83c-.22,7.77-.23,15.33-.71,22.87-.33,5.13-1.3,10.22-2,15.32-.28,2.01-.51,4.04-.93,6.03-1.66,7.88-3.28,15.78-5.13,23.62-1.2,5.08-2.56,10.14-4.25,15.08-3.16,9.28-6.72,18.41-11.15,27.18-1.93,3.82-3.67,7.74-5.73,11.49-3.42,6.24-6.97,12.4-10.56,18.54-4.31,7.34-9.63,13.97-14.65,20.83-5.2,7.12-11.08,13.64-16.83,20.27-3.13,3.61-6.63,6.93-10.15,10.18-5.39,4.97-10.74,10.03-16.48,14.58-5.97,4.72-12.3,9.01-18.63,13.24-5.37,3.59-10.87,7-16.48,10.19-4.79,2.73-9.76,5.14-14.74,7.51-5.5,2.61-11.05,5.15-16.69,7.46-4.29,1.76-8.71,3.25-13.15,4.62-5.96,1.84-11.95,3.67-18.02,5.08-6.5,1.51-12.97,3.21-19.61,4.06-2.44,.32-4.83,.99-7.26,1.46-1.21,.23-2.43,.45-3.66,.53-12.1,.87-24.2,1.91-36.36,1.64-3.48-.08-6.97,.05-10.46-.06-2.25-.07-4.49-.35-6.73-.59-5.7-.6-11.46-.91-17.1-1.91-6.92-1.22-13.76-2.94-20.61-4.59-5.22-1.26-10.46-2.52-15.56-4.17-6.83-2.21-13.59-4.66-20.28-7.27-5.4-2.1-10.73-4.44-15.96-6.93-8.13-3.88-15.91-8.41-23.4-13.42-4.1-2.74-8.03-5.73-12.03-8.6-.94-.68-1.94-1.29-2.84-2.02-4.18-3.37-8.27-6.85-12.51-10.15-9.1-7.07-17.01-15.4-25.03-23.6-4.26-4.35-7.94-9.26-12.09-13.72-4.09-4.39-7.22-9.45-10.74-14.24-5.21-7.08-9.81-14.57-14.15-22.19-4.52-7.94-8.84-16.02-12.31-24.5-1.92-4.7-4.15-9.29-5.69-14.11-1.88-5.87-4.3-11.56-5.51-17.65-.93-4.69-2.19-9.32-3.19-14-.61-2.84-.99-5.72-1.51-8.58-.31-1.71-.8-3.39-1-5.11C.09,282.54-.44,263.82,.35,245.07c.25-5.95,.71-11.89,1.08-17.84,.03-.43,.07-.87,.14-1.3,.93-5.59,1.78-11.19,2.82-16.75,.59-3.13,1.5-6.21,2.27-9.31,1.18-4.72,2.26-9.46,3.59-14.14,1.17-4.11,2.64-8.14,3.97-12.21,.36-1.1,.65-2.23,1.05-3.32,1.59-4.28,3.14-8.58,4.84-12.81,2.17-5.38,4.34-10.78,6.78-16.04,2.02-4.34,4.42-8.5,6.68-12.72,1.13-2.11,2.34-4.18,3.49-6.28,3.45-6.33,7.84-12.04,11.71-18.09,3.71-5.8,8.61-10.58,12.63-16.08,3.89-5.31,8.57-9.85,13.18-14.48,4.66-4.69,9.31-9.39,14.45-13.56,3.27-2.65,6.54-5.3,9.81-7.96,7.11-5.79,14.96-10.5,22.61-15.5,6.83-4.47,14.08-8.13,21.4-11.66,5.55-2.68,11.09-5.46,16.83-7.69,7.16-2.78,14.48-5.2,21.83-7.47,5.68-1.75,11.46-3.26,17.28-4.46,6.82-1.41,13.72-2.44,20.61-3.51,4.16-.65,8.35-1.12,12.54-1.55,2.24-.23,4.5-.26,6.75-.27,5.38-.04,10.76-.14,16.14,.02,7.63,.23,15.25,.67,22.87,1.06,1.15,.06,2.3,.32,3.44,.53,1.24,.23,1.89,1.01,1.93,2.27,.03,.73,.04,1.45,.04,2.18-.05,6.61-.09,13.22-.16,19.84,0,1.02-.04,2.04-.14,3.05-.19,1.9-.66,2.32-2.62,2.45-.29,.02-.58,.03-.87,.03-11.13-.2-22.24,.17-33.34,.86-5.94,.37-11.86,1.04-17.78,1.64-3.9,.4-7.79,.89-11.68,1.41-1.87,.25-3.73,.58-5.58,.97-3.98,.84-7.97,1.61-11.9,2.63-7.37,1.91-14.78,3.72-21.91,6.46-4.95,1.9-9.99,3.57-14.83,5.7-5.51,2.43-10.93,5.09-16.22,7.97-5.54,3.01-10.89,6.39-16.3,9.64-9.03,5.41-16.68,12.6-24.66,19.34-9.03,7.63-16.72,16.53-23.9,25.89-3.44,4.49-6.91,8.97-10.32,13.49-.78,1.04-1.42,2.19-2.09,3.31-3.9,6.47-7.86,12.9-11.65,19.43-1.92,3.32-3.61,6.79-5.23,10.28-2.23,4.8-4.51,9.6-6.37,14.56-2.47,6.59-4.63,13.3-6.76,20.01-1.54,4.84-2.9,9.74-4.18,14.65-.68,2.59-.99,5.28-1.52,7.91-1.24,6.12-2.61,12.21-3.73,18.36-.63,3.49-1.17,7.05-1.22,10.59-.16,10.82-.1,21.65-.07,32.48,.02,7.51,1.32,14.89,2.24,22.31,.82,6.59,2.4,13,3.9,19.42,1.33,5.7,2.69,11.43,5.13,16.84,2.21,4.89,4.01,9.96,6.22,14.85,1.55,3.43,3.47,6.69,5.26,10.01,1.31,2.43,2.6,4.87,4.03,7.22,2.41,3.97,4.91,7.88,7.41,11.79,1.05,1.65,2.11,3.31,3.28,4.87,4.67,6.2,9.35,12.4,14.11,18.53,1.46,1.89,3.16,3.6,4.78,5.37,6.77,7.39,13.73,14.61,21.21,21.28,5.8,5.18,12,9.87,18.46,14.21,3.43,2.31,6.83,4.67,10.36,6.83,2.72,1.67,5.59,3.1,8.42,4.57,4.96,2.57,9.86,5.27,14.94,7.58,5.75,2.61,11.71,4.74,17.49,7.28,4.09,1.79,8.4,2.78,12.62,4.09,3.25,1.01,6.61,1.69,9.91,2.56,8.44,2.23,17.03,3.58,25.62,5.09,14.15,2.48,28.37,2.55,42.61,2,12.57-.48,25.07-1.94,37.36-4.78,6.29-1.45,12.62-2.77,18.87-4.42,4.55-1.2,9-2.81,13.47-4.31,3.92-1.32,7.89-2.55,11.67-4.2,5.11-2.23,10.18-4.56,15.15-7.15,6.08-3.17,11.77-6.92,17.44-10.68,4.83-3.2,9.9-6.08,14.3-9.93,2.51-2.19,5.39-3.94,7.95-6.08,2.84-2.37,5.55-4.89,8.22-7.45,5.04-4.82,10.1-9.62,14.96-14.61,3.03-3.12,5.82-6.5,8.53-9.9s5.21-6.97,7.78-10.47c2.24-3.04,4.58-6.01,6.64-9.17,2.03-3.09,3.75-6.37,5.63-9.56,.88-1.5,1.87-2.94,2.71-4.46,1.83-3.3,3.64-6.6,5.36-9.95,1.85-3.61,3.67-7.25,5.36-10.94,1.66-3.63,3.25-7.3,4.69-11.02,1.62-4.19,3.2-8.41,4.5-12.71,1.87-6.17,3.83-12.32,4.65-18.77,.5-3.95,1.57-7.83,2.1-11.78,1.86-13.9,3.47-27.84,2.48-41.91-.56-8.04-1.3-16.07-2.63-24.03-.36-2.15-.84-4.27-1.16-6.42-.67-4.45-1.23-8.91-1.91-13.36-.21-1.36-.67-2.68-.99-4.02-.92-3.88-1.65-7.82-2.79-11.63-1.92-6.4-3.98-12.76-6.93-18.78-3.86-7.89-7.7-15.79-11.79-23.56-2.87-5.45-6.53-10.45-9.82-15.66-4.08-6.47-8.94-12.34-13.54-18.39-4.92-6.47-10.42-12.5-16.31-18.12-6.15-5.87-12.17-11.89-18.63-17.4-6.24-5.32-12.76-10.34-19.83-14.56-6.23-3.71-12.44-7.51-18.89-10.81-8.13-4.17-16.44-8.01-25.15-10.9-4.89-1.62-9.72-3.41-14.6-5.05-1.65-.55-3.38-.86-5.07-1.26-2.61-.62-5.22-1.24-7.84-1.83-2.46-.55-3.12-1.09-3.23-3.63-.17-3.92,0-7.85-.19-11.76-.23-4.57-.64-9.12-1.08-13.68-.24-2.48,.2-3.08,2.66-2.61,5.07,.97,10.17,1.8,15.15,3.11,5.96,1.56,11.79,3.6,17.69,5.37,6.83,2.05,13.39,4.81,19.97,7.51,6.87,2.81,13.44,6.21,19.9,9.84,3.92,2.21,7.84,4.42,11.69,6.75,3.41,2.07,6.77,4.24,10.04,6.52,5.71,3.99,11.48,7.92,16.96,12.21,5.03,3.93,9.74,8.26,14.54,12.47,2.29,2.01,4.54,4.08,6.67,6.26,2.89,2.96,5.67,6.02,8.45,9.09,2.73,3.01,5.49,6.01,8.05,9.16,3.02,3.72,5.93,7.53,8.72,11.42,3.38,4.71,6.74,9.46,9.83,14.36,3.29,5.22,6.32,10.6,9.33,15.99,2.76,4.94,5.4,9.95,7.97,14.99,1.35,2.65,2.54,5.39,3.64,8.15,2.13,5.32,4.34,10.63,6.17,16.06,1.87,5.56,3.46,11.23,4.91,16.92,1.61,6.33,2.99,12.72,4.32,19.11,.59,2.84,.8,5.75,1.19,8.63,.69,4.96,1.7,9.9,2.01,14.88,.49,8.04,.52,16.12,.74,23.97h.04Z"/>
            <path class="cls-1" d="M299.65,287.64c.03,.59-.1-1.63-.04-.66,1.58,.49,2.76,1.34,3.97,2.12,3.14,2.03,5.88,4.47,8.14,7.46,.75,1,1.01,2.04,.88,3.26-.15,1.36-.32,2.74-.32,4.11,.01,5.59,.09,11.19,.14,16.78,.02,2.51,.58,3.26,3.09,3.59,2.3,.3,4.63,.48,6.95,.52,9.74,.13,19.48,.2,29.22,.27,17.23,.13,34.45,.25,51.68,.36,6.1,.04,12.21,.08,18.31,.03,1.73-.01,3.48-.26,5.19-.53,1.68-.27,2.34-1.05,2.64-2.72,.01-.07,.03-.14,.03-.22-.01-6.75,.59-13.51-.73-20.21-.1-.49-.26-.99-.47-1.45-.39-.87-1.02-1.26-1.9-.64-2.51,1.76-5.5,1.79-8.34,2.13-2.73,.33-5.51,.26-8.27,.29-6.61,.07-13.23,.08-19.84,.13-18.02,.13-36.04,.37-54.06,.32-5.35-.01-10.7-.81-16.03-1.36-1.12-.12-2.3-.59-3.23-1.21-1.74-1.16-3.02-2.7-2.93-5.02,.1-2.47,0-4.94,.18-7.4,.16-2.15,.88-2.65,2.93-2.63,12.86,.13,25.73,.24,38.59,.38,14.46,.16,28.92,.38,43.39,.49,8.06,.06,16.13-.02,24.19-.07,1.45,0,2.9-.17,4.35-.32,1.66-.17,2.4-.81,2.47-2.46,.1-2.54,.03-5.08,0-7.62-.02-1.35-.75-2.2-2.09-2.38-2.08-.28-4.18-.52-6.27-.7-3.76-.33-7.56-.39-11.28-.99-2.84-.46-5.57-1.56-8.35-2.4-4.88-1.49-9.06-4.25-13.02-7.34-3.32-2.59-6.53-5.33-9.76-8.03-.89-.74-1.71-1.57-1.82-3.04,1.82-.97,3.57-2.2,5.51-2.88,2.38-.84,3.41-2.42,3.41-4.73,0-4.72,.02-9.44-.25-14.15-.29-5.15-.77-10.29-.2-15.44,.06-.53,.2-1.06,.39-2.04,1.25,2.08,2.12,3.83,3.26,5.38,1.81,2.45,3.72,4.83,5.72,7.12,5.16,5.91,11.44,10.47,18.02,14.65,6.38,4.05,12.92,7.84,19.75,11.07,6.64,3.14,13.53,5.67,20.58,7.71,4.81,1.4,9.66,2.63,14.5,3.9,3.95,1.04,4.14,1.41,3.56,5.38-.84,5.82-1.47,11.67-2.35,17.48-.58,3.87-1.31,7.73-2.18,11.55-1.2,5.23-2.37,10.49-3.96,15.6-1.71,5.46-3.84,10.79-5.89,16.14-4.01,10.46-9.11,20.42-14.51,30.2-4,7.25-8.98,13.89-13.97,20.5-6.01,7.95-12.87,15.16-19.55,22.52-6.16,6.8-12.95,12.94-19.95,18.84-6.77,5.71-13.64,11.31-20.61,16.78-2.78,2.19-5.95,3.89-8.93,5.82-2.92,1.89-5.82,3.82-8.75,5.69-1.89,1.2-4.01,1.97-5.74,3.5-1.43,1.26-2.47,.72-2.81-1.23-.18-.99-.2-2.02-.22-3.03-.23-12.93-.46-25.86-.66-38.79-.04-2.9,.07-5.81,.08-8.72,0-1.38,.04-2.76-.07-4.13-.16-2.07-1.26-3.52-3.18-4.32-1.07-.44-2.17-.83-3.27-1.21-9.78-3.43-18.91-8.18-27.59-13.81-3.9-2.52-7.79-5.05-11.67-7.59-4.29-2.81-7.19-6.92-10.19-10.94-1.38-1.86-2.7-3.77-3.93-5.74-1.42-2.28-3.44-3.12-6.05-3.11-8.87,.03-17.73-.02-26.6-.02-1.53,0-3.05,.13-4.58,.14-2.48,0-4.04,1.4-5.19,3.38-.47,.81-.85,1.69-1.2,2.56-1.98,4.94-5.76,8.5-9.4,12.15-3.5,3.52-7.49,6.42-11.63,9.13-1.88,1.23-3.61,2.69-5.52,3.88-7.62,4.73-15.7,8.48-24.2,11.36-.69,.23-1.33,.58-2.02,.81-2.83,.98-3.78,3.12-3.81,5.93-.13,10.82-.23,21.65-.46,32.47-.17,7.92-.51,15.83-.78,23.74,0,.42-.12,.84-.2,1.33-1.59,.32-2.93-.19-4.21-.85-7.29-3.74-14.66-7.34-21.81-11.34-5.06-2.83-9.83-6.16-14.67-9.38-3.99-2.65-7.92-5.4-11.78-8.23-2.51-1.84-4.94-3.82-7.27-5.89-4.24-3.75-8.57-7.43-12.52-11.48-5.93-6.08-11.62-12.4-17.29-18.72-1.83-2.04-3.24-4.45-4.92-6.63-1.87-2.41-3.95-4.65-5.73-7.12-2.46-3.41-4.86-6.88-7.04-10.47-3.01-4.95-5.83-10.03-8.67-15.09-.81-1.45-1.4-3.02-2.08-4.54-1.24-2.78-2.62-5.51-3.69-8.35-1.82-4.81-3.78-9.59-4.72-14.69-.19-1.06-.73-2.05-1.03-3.1-.63-2.23-1.3-4.46-1.78-6.72-.56-2.64-1.35-5.18-2.44-7.65-.37-.83-.86-1.9-.05-2.66,.8-.74,1.67,.11,2.39,.45,1.71,.79,3.34,1.75,5.01,2.64,5.78,3.09,11.83,5.41,18.23,7.01,12.05,3.01,24.32,4.28,36.67,4.67,12.49,.39,25,.43,37.5,.5,28.13,.17,56.26,.27,84.39,.36,1.72,0,3.46-.31,5.14-.68,1.45-.32,2.22-1.43,2.03-2.93-.29-2.3-.73-4.58-1.1-6.86-.29-1.79-.63-3.57-.83-5.37-.15-1.43,.15-1.85,1.61-2.05,1.87-.25,3.76-.4,5.65-.44,10.17-.22,20.35-.32,30.52-.62,5.8-.17,11.63-.03,17.39-1.09,2.69-.49,3.29-1.05,3.4-3.84,.08-2.1-.11-4.23,.8-6.22,.61-1.34,.81-1.43,2.56-.95l.04,.66Z"/>
            <path class="cls-1" d="M45.71,273.04c-2.84,.13-3.41-.44-3.62-2.93-.31-3.69-.68-7.37-1.09-11.05-.57-5.13-1.2-10.24-1.81-15.36-.45-3.75-.85-4.91,4.5-5.78,7.24-1.18,14.48-2.38,21.64-3.91,4.46-.95,8.8-2.47,13.17-3.82,4.65-1.44,9.34-2.77,13.87-4.51,8.47-3.25,16.92-6.58,25.23-10.23,6.31-2.77,12.42-6,18.54-9.19,4.05-2.11,7.96-4.5,11.91-6.81,6.96-4.08,13.64-8.57,20.25-13.18,12.61-8.81,24.02-19.02,34.96-29.77,7.15-7.03,13.82-14.52,20.07-22.36,2.85-3.57,5.73-7.14,8.31-10.9,3.16-4.6,5.97-9.45,9.04-14.12,2.8-4.26,5.31-8.67,7.38-13.32,1.56-3.51,3.03-7.07,4.49-10.63,1.35-3.29,2.7-6.58,3.94-9.91,.73-1.97,1.2-4.03,1.86-6.03,.5-1.51,1.01-3.04,1.73-4.45,.92-1.81,2.46-2.81,4.57-2.81,5.38,0,10.76-.03,16.14,0,1.82,0,2.3,.53,2.31,2.38,0,.87-.08,1.75-.25,2.6-1.24,6.34-2.31,12.72-3.81,19-1.45,6.07-3.52,11.98-6,17.73-1.84,4.26-3.44,8.65-5.53,12.78-3.02,5.95-6.36,11.74-9.62,17.57-3.3,5.9-7.4,11.29-11.16,16.89-3.74,5.57-8.21,10.53-12.32,15.79-4.88,6.26-10.46,11.87-16.2,17.32-3.42,3.25-6.64,6.74-10.25,9.77-6.12,5.13-12.32,10.18-18.76,14.9-6.61,4.84-13.58,9.19-20.34,13.83-6.05,4.15-12.26,8.05-18.71,11.56-6.31,3.44-12.57,6.96-18.93,10.28-8.83,4.62-18.14,8.14-27.51,11.48-5.67,2.02-11.28,4.24-17.01,6.1-5.31,1.72-10.74,3.08-16.11,4.61-2.37,.68-4.72,1.44-7.11,2.08-5.32,1.43-10.66,2.82-16,4.19-.7,.18-1.44,.19-1.79,.23l.02-.02Z"/>
            <path class="cls-1" d="M462.62,223.77c-2,.89-3.8,.35-5.43-.3-5.66-2.24-11.34-4.47-16.86-7.04-7.37-3.43-14.62-7.12-21.86-10.82-5.81-2.97-11.66-5.92-17.04-9.66-3.39-2.36-6.7-4.85-9.97-7.37-3.16-2.44-6.28-4.94-9.34-7.51-3.06-2.57-6.07-5.19-9-7.91-4.62-4.3-9.21-8.64-13.69-13.09-2.58-2.55-4.91-5.34-7.38-8.01-1.13-1.23-2.28-2.43-3.45-3.63-2.86-2.92-5.18-6.25-7.39-9.67-1.73-2.68-3.75-5.18-5.38-7.92-2.36-3.99-5.12-7.72-7.15-11.94-1.88-3.92-4.44-7.5-6.38-11.39-3.37-6.74-6.33-13.68-8.74-20.84-2.2-6.53-4.42-13.06-6.61-19.59-1.14-3.41-1.31-6.98-1.54-10.53-.03-.42,.32-.87,.5-1.31,.46,.25,1.06,.4,1.37,.78,2.09,2.59,4.12,5.23,6.16,7.85,.4,.52,.81,1.03,1.16,1.58,3.23,5.08,6.31,10.27,9.71,15.24,4.42,6.47,8.91,12.89,14.26,18.67,4.04,4.37,7.82,8.98,11.87,13.34,3.95,4.26,7.95,8.5,12.19,12.47,6.31,5.9,12.71,11.71,19.33,17.26,5.61,4.71,11.56,9.02,17.39,13.46,5.91,4.5,12.32,8.21,18.81,11.79,5.78,3.19,11.64,6.23,17.42,9.43,4.57,2.53,9.08,5.17,13.56,7.85,1.36,.81,2.62,1.85,3.8,2.91,.68,.61,1.27,1.43,1.64,2.27,1.54,3.47,2.58,7.06,3.07,10.86,.38,2.86,1.26,5.66,1.86,8.5,.54,2.56,.95,5.14,1.5,7.69,.45,2.12,1.02,4.21,1.6,6.58h.01Z"/>
          </g>
        </g>
      </g>
      <text class="cls-2" transform="translate(572.41 372.11)"><tspan x="0" y="0">楽舞敦煌</tspan></text>
    </g>
  </g>
</svg>