<svg width="24.000000" height="24.000000" viewBox="0 0 24 24" fill="none" xmlns="http://www.w3.org/2000/svg" xmlns:xlink="http://www.w3.org/1999/xlink">
	<desc>
			Created with Pixso.
	</desc>
	<defs>
		<clipPath id="clip1_7932">
			<rect width="24.000000" height="24.000000" fill="white"/>
		</clipPath>
	</defs>
	<g clip-path="url(#clip1_7932)">
		<path d="M3 3L5 3L5.4 5L7 13M17 17L5.41422 17C4.52331 17 4.07714 15.9229 4.70711 15.2929L7 13L17 13L21 5L5.4 5M17 21C15.8954 21 15 20.1046 15 19C15 17.8954 15.8954 17 17 17C18.1046 17 19 17.8954 19 19C19 20.1046 18.1046 21 17 21ZM7 21C5.89543 21 5 20.1046 5 19C5 17.8954 5.89543 17 7 17C8.10457 17 9 17.8954 9 19C9 20.1046 8.10457 21 7 21Z" stroke="#111B29" stroke-width="2.000000" stroke-linejoin="round"/>
	</g>
</svg>
